# xmcd
#
# Track frame offsets: 
#        150
#        12820
#        28814
#        43438
#        59705
#        64130
#        72063
#        87155
#        108789
#        119695
#        133472
#        144273
#        150208
#        178594
#        182824
#        189536
#        204198
#        221952
#        240509
#        261715
#
# Disc length: 3762 seconds
#
# Revision: 5
# Processed by: cddbd v1.5.2PL0 Copyright (c) Steve Scherf et al.
# Submitted via: ExactAudioCopy v1.0b3
#
DISCID=300eb014
DTITLE=Frédéric Chopin - Collection Historique - Raoul Pugno - Vladimi
DTITLE=r de Pachmann - Ignaz Friedman
DYEAR=1936
DGENRE=Romantique
TTITLE0=Grande Valse brillante en la bémol majeur op. 34 n° 1 (Raoul P
TTITLE0=ugno 1903)
TTITLE1=Nocturne en fa dièse majeur op. 15 n° 2 (Raoul Pugno 1903)
TTITLE2=Impromptu n° 1 en la bémol majeur op. 29 (Raoul Pugno 1903)
TTITLE3=Berceuse en ré bémol majeur op. 57 (Raoul Pugno 1903)
TTITLE4=Étude en sol bémol majeur op. 25 n° 9 - allegro assai (Vladimi
TTITLE4=r de Pachmann 1907-1909)
TTITLE5=Valse « Minute » « Le petit chien » en ré bémol majeur op. 64 
TTITLE5=no. 1 (V. de P. 1907-1909)
TTITLE6=Valse en ut dièse mineur op. 64 n° 2 (Vladimir de Pachmann 190
TTITLE6=7-1909)
TTITLE7=Nocturne en sol majeur op. 37 n° 2 (Vladimir de Pachmann 1907-
TTITLE7=1909)
TTITLE8=Mazurka op. 50 n° 2 en la bémol majeur (Vladimir de Pachmann 1
TTITLE8=907-1909)
TTITLE9=Étude en ut mineur op. 10 n° 12 - allegro con fuoco (Vladimir 
TTITLE9=de Pachmann 1907-1909)
TTITLE10=Étude en ut mineur op. 10 n° 12 - allegro con fuoco (Ignaz Fr
TTITLE10=iedman 1925-1936)
TTITLE11=Étude en ut majeur op. 10 n° 7 - vivace (Ignaz Friedman 1925-
TTITLE11=1936)
TTITLE12=Polonaise en la bémol majeur « Héroïque » op. 53 - maestoso (
TTITLE12=I. Friedman 1925-1936)
TTITLE13=Étude en sol bémol majeur op. 25 n° 9 - allegro assai (Ignaz 
TTITLE13=Friedman 1925-1936)
TTITLE14=Étude en sol bémol majeur op. 10 n° 5 - vivace (Ignaz Friedma
TTITLE14=n 1925-1936)
TTITLE15=Valse « L'adieu » en la bémol majeur op. posthume 69 n° 1 (Ig
TTITLE15=naz Friedman 1925-1936)
TTITLE16=Mazurka op. 24 n° 4 en si bémol mineur (Ignaz Friedman 1925-1
TTITLE16=936)
TTITLE17=Mazurka op. 33 n° 4 en si mineur (Ignaz Friedman 1925-1936)
TTITLE18=Impromptu n° 2 en fa dièse majeur op. 36 (Ignaz Friedman 1925
TTITLE18=1936)
TTITLE19=Nocturne en mi bémol majeur op. 55 n° 2 (Ignaz Friedman 1925-
TTITLE19=1936)
EXTD=
EXTT0=
EXTT1=
EXTT2=
EXTT3=
EXTT4=
EXTT5=
EXTT6=
EXTT7=
EXTT8=
EXTT9=
EXTT10=
EXTT11=
EXTT12=
EXTT13=
EXTT14=
EXTT15=
EXTT16=
EXTT17=
EXTT18=
EXTT19=
PLAYORDER=
